<svg
        width="280" height="80" viewBox="0 0 280 80"
        fill="none"
        xmlns="http://www.w3.org/2000/svg"
        className="w-full h-auto"
      >
        {/* Icon */}
        <g transform="translate(12, 8) scale(0.9)">
          {/* Base document */}
          <path
            d="M40 48H8C5.79086 48 4 46.2091 4 44V8C4 5.79086 5.79086 4 8 4H28L44 20V44C44 46.2091 42.2091 48 40 48Z"
            fill="#2563EB"
            opacity="0.9"
          />
          {/* Folded corner */}
          <path d="M28 4L44 20H32C29.7909 20 28 18.2091 28 16V4Z" fill="#60A5FA" opacity="0.9" />
          {/* Middle document */}
          <path
            d="M36 44H4C1.79086 44 0 42.2091 0 40V4C0 1.79086 1.79086 0 4 0H24L40 16V40C40 42.2091 38.2091 44 36 44Z"
            fill="#3B82F6"
          />
          {/* Folded corner */}
          <path d="M24 0L40 16H28C25.7909 16 24 14.2091 24 12V0Z" fill="#93C5FD" />
          {/* Front document */}
          <path
            d="M32 40H0C-2.20914 40 -4 38.2091 -4 36V0C-4 -2.20914 -2.20914 -4 0 -4H20L36 12V36C36 38.2091 34.2091 40 32 40Z"
            fill="#60A5FA"
          />
          {/* Folded corner */}
          <path d="M20 -4L36 12H24C21.7909 12 20 10.2091 20 8V-4Z" fill="#BFDBFE" />
          {/* Sync icon */}
          <circle cx="16" cy="18" r="10" fill="#1E40AF" opacity="0.7" />
          <path
            d="M16 12V14M16 22V24M12 18H10M22 18H20M20.5 13.5L19 15M13 21L11.5 22.5M13 15L11.5 13.5M20.5 22.5L19 21"
            stroke="white"
            strokeWidth="2"
            strokeLinecap="round"
          />
          <path
            d="M16 20C17.1046 20 18 19.1046 18 18C18 16.8954 17.1046 16 16 16C14.8954 16 14 16.8954 14 18C14 19.1046 14.8954 20 16 20Z"
            fill="white"
          />
        </g>

        {/* Text */}
        <text x="60" y="48" fontFamily="Arial, sans-serif" fontSize="32" fontWeight="bold" fill="white">
          RTDocs
        </text>
      </svg>